<svg width="252.77" height="55.57" xmlns="http://www.w3.org/2000/svg"><g aria-label="jobimpact" style="font-size:53.3333px;fill:#555"><path d="M188.58 276.06q-1.01 0-1.65-.69-.7-.7-.7-1.65v-.48q0-1.76 2.19-2.3 3.41-.96 3.41-5.33v-25.44q0-1.07.7-1.81.74-.75 1.86-.75 1.07 0 1.76.75.75.74.75 1.81v26.72q0 2.77-1.17 4.85-1.12 2.08-3.04 3.2t-4.11 1.12zm5.76-42.24q-1.55 0-2.24-.53-.64-.59-.64-1.81v-.86q0-1.28.7-1.8.74-.54 2.23-.54 1.5 0 2.14.58.69.54.69 1.76v.86q0 1.28-.7 1.81-.69.53-2.18.53zM231.46 251.58q0 4.16-1.87 7.47-1.86 3.3-5.12 5.17-3.2 1.87-7.1 1.87-3.88 0-7.14-1.87-3.2-1.86-5.06-5.17-1.87-3.3-1.87-7.47 0-4.16 1.87-7.52 1.86-3.36 5.06-5.22 3.26-1.87 7.15-1.87 3.9 0 7.1 1.87 3.25 1.86 5.11 5.22 1.87 3.36 1.87 7.52zm-5.07 0q0-2.88-1.22-5.12-1.18-2.29-3.26-3.52-2.02-1.28-4.53-1.28-2.5 0-4.59 1.28-2.02 1.23-3.25 3.52-1.17 2.24-1.17 5.12 0 2.83 1.17 5.07 1.23 2.24 3.25 3.52 2.08 1.23 4.59 1.23 2.5 0 4.53-1.23 2.08-1.28 3.26-3.52 1.22-2.24 1.22-5.07zM251.35 236.97q3.63 0 6.56 1.87 2.94 1.86 4.59 5.17 1.7 3.3 1.7 7.47 0 4.16-1.7 7.52-1.65 3.36-4.59 5.22-2.93 1.87-6.45 1.87-2.77 0-5.17-1.23-2.4-1.22-3.9-3.04v1.55q0 1.07-.74 1.81-.7.75-1.82.75-1.06 0-1.81-.7-.7-.74-.7-1.86v-34.72q0-1.12.7-1.81.7-.75 1.81-.75 1.12 0 1.82.75.74.74.74 1.81v13.01q1.28-1.92 3.74-3.3 2.45-1.39 5.22-1.39zm-.58 24.43q2.45 0 4.42-1.28 1.98-1.34 3.04-3.58 1.12-2.29 1.12-5.06 0-2.78-1.12-5.02-1.06-2.24-3.04-3.52-1.97-1.28-4.42-1.28-2.51 0-4.48 1.28-1.98 1.28-3.1 3.52-1.06 2.2-1.06 5.02 0 2.82 1.06 5.06 1.12 2.24 3.1 3.58 1.97 1.28 4.48 1.28zM274.87 263q0 1.06-.74 1.81-.7.75-1.82.75-1.06 0-1.81-.75-.7-.75-.7-1.81v-23.1q0-1.06.7-1.8.75-.76 1.81-.76 1.12 0 1.82.75.74.75.74 1.81zm-2.56-29.18q-1.54 0-2.24-.53-.64-.59-.64-1.81v-.86q0-1.28.7-1.8.74-.54 2.24-.54 1.49 0 2.13.58.7.54.7 1.76v.86q0 1.28-.7 1.81t-2.19.53zM314.23 237.13q9.34 0 9.34 11.63V263q0 1.12-.7 1.86-.7.7-1.81.7-1.12 0-1.87-.75-.7-.75-.7-1.81V248.8q0-6.99-5.86-6.99-2.08 0-3.78.96-1.66.91-2.62 2.51-.9 1.6-.9 3.52V263q0 1.06-.75 1.81-.7.75-1.81.75-1.12 0-1.82-.7-.7-.74-.7-1.86v-14.24q0-3.15-1.32-5.02-1.34-1.92-4.43-1.92-3.15 0-5.23 2.03-2.02 1.97-2.02 4.9V263q0 1.06-.75 1.81-.7.75-1.81.75-1.12 0-1.82-.7-.7-.74-.7-1.86v-22.83q0-1.07.7-1.81.75-.75 1.82-.75 1.12 0 1.8.75.76.74.76 1.81v1.87q1.38-2.08 3.68-3.47 2.34-1.44 5.06-1.44 6.62 0 8.59 5.87 1.17-2.24 3.9-4.06 2.71-1.8 5.75-1.8zM345.17 237.13q3.62 0 6.56 1.87 2.93 1.81 4.58 5.12 1.7 3.3 1.7 7.46t-1.7 7.47q-1.65 3.25-4.58 5.12-2.94 1.87-6.46 1.87-2.77 0-5.17-1.23t-3.9-2.99v11.84q0 1.07-.74 1.82-.7.74-1.81.74-1.07 0-1.82-.74-.7-.7-.7-1.82v-33.54q0-1.12.7-1.87t1.82-.75q1.12 0 1.8.75.76.75.76 1.87v1.54q1.28-1.86 3.73-3.2 2.45-1.33 5.23-1.33zm-.6 24.21q2.46 0 4.44-1.28 1.97-1.28 3.04-3.46 1.12-2.24 1.12-5.02 0-2.77-1.12-4.96-1.07-2.24-3.04-3.52-1.98-1.28-4.43-1.28-2.5 0-4.48 1.28-1.97 1.23-3.1 3.47-1.06 2.24-1.06 5.01 0 2.78 1.07 5.02 1.12 2.24 3.09 3.52 1.97 1.22 4.48 1.22zM386.55 237.24q1.12 0 1.82.74.74.7.74 1.87V263q0 1.06-.74 1.81-.7.75-1.82.75t-1.81-.7q-.7-.74-.7-1.86v-1.39q-1.38 1.87-3.78 3.2-2.4 1.28-5.17 1.28-3.63 0-6.62-1.87-2.93-1.86-4.64-5.17-1.65-3.36-1.65-7.52t1.65-7.47q1.7-3.36 4.64-5.22 2.94-1.87 6.46-1.87 2.82 0 5.22 1.17 2.46 1.18 3.9 3v-1.29q0-1.12.69-1.87.7-.74 1.81-.74zm-10.88 24.16q2.5 0 4.43-1.28 1.97-1.28 3.04-3.52 1.12-2.24 1.12-5.07 0-2.77-1.12-5.01-1.07-2.24-3.04-3.52-1.92-1.34-4.43-1.34-2.5 0-4.48 1.28-1.92 1.28-3.04 3.52-1.06 2.24-1.06 5.07t1.06 5.07q1.12 2.24 3.04 3.52 1.98 1.28 4.48 1.28zM408.8 236.97q4.2 0 6.98 1.33 2.83 1.34 2.83 3.42 0 .9-.6 1.65-.58.7-1.48.7-.7 0-1.12-.22-.38-.21-1.07-.7-.32-.31-1.02-.74-.64-.32-1.8-.53-1.18-.22-2.14-.22-2.77 0-4.9 1.28-2.14 1.28-3.31 3.58-1.18 2.24-1.18 5.01 0 2.83 1.12 5.07 1.18 2.24 3.26 3.52 2.08 1.28 4.74 1.28 2.78 0 4.48-.86.37-.2 1.01-.69.54-.43.91-.64.43-.21 1.01-.21 1.07 0 1.66.7.64.63.64 1.7 0 1.12-1.44 2.24-1.39 1.06-3.79 1.76-2.34.7-5.06.7-4.06 0-7.15-1.88-3.1-1.92-4.8-5.22-1.65-3.36-1.65-7.47 0-4.1 1.76-7.41 1.76-3.36 4.9-5.23 3.15-1.92 7.2-1.92zM431.62 242.57v15.9q0 2.66 2.4 2.66.37 0 1.01-.16.64-.21 1.01-.21.7 0 1.18.58.48.6.48 1.5 0 1.12-1.28 1.92-1.28.8-2.88.8-1.76 0-3.26-.38-1.44-.37-2.6-1.86-1.13-1.55-1.13-4.64v-16.1h-3.1q-1 0-1.7-.65-.64-.7-.64-1.7 0-1.02.64-1.66.7-.64 1.7-.64h3.1v-4.48q0-1.07.7-1.81.74-.75 1.86-.75 1.07 0 1.76.75.75.74.75 1.81v4.48h4.42q1.02 0 1.66.7.7.63.7 1.65 0 1.01-.7 1.65-.64.64-1.66.64z" style="-inkscape-font-specification:Quicksand" transform="translate(-186.23 -226.1)"/></g><path style="color:#000;fill:#00d3aa;stroke-width:1.05328;-inkscape-stroke:none" d="M271.19 272.09h163.29c2.21 0 4 1.78 4 4v.04c0 2.22-1.79 4-4 4h-163.3c-2.2 0-3.99-1.78-3.99-4v-.04c0-2.22 1.78-4 4-4z" transform="translate(-186.23 -225.1)"/><path style="color:#000;fill:#00d3a2;-inkscape-stroke:none" d="M271.19 271.56a4.53 4.53 0 0 0-4.53 4.53v.04c0 2.5 2.03 4.53 4.53 4.53h163.29c2.5 0 4.52-2.03 4.52-4.53v-.04c0-2.5-2.03-4.53-4.52-4.53zm0 1.06h163.29a3.45 3.45 0 0 1 3.47 3.47v.04a3.45 3.45 0 0 1-3.47 3.47h-163.3a3.45 3.45 0 0 1-3.46-3.47v-.04a3.45 3.45 0 0 1 3.47-3.47z" transform="translate(-186.23 -225.1)"/></svg>
